<svg width="296" height="196" fill="none" xmlns="http://www.w3.org/2000/svg"><g clip-path="url(#a)"><path d="M147.947 0C174.177 0 200 12.68 200 43.013c0 27.97-30.533 38.728-37.091 48.835-4.923 7.518-3.278 18.082-16.804 18.082-8.811 0-13.115-7.523-13.115-14.407 0-25.615 35.853-31.413 35.853-52.505 0-11.61-7.36-18.494-19.663-18.494-26.229 0-15.987 28.388-35.852 28.388-7.172 0-13.328-4.518-13.328-13.118C99.995 18.697 122.941 0 147.947 0Zm-1.02 123.895c4.451.023 8.713 1.89 11.86 5.194 3.147 3.305 4.924 7.78 4.944 12.452-.017 4.673-1.794 9.15-4.941 12.455-3.147 3.305-7.411 5.171-11.863 5.191-4.453-.019-8.718-1.884-11.866-5.189-3.149-3.305-4.926-7.783-4.943-12.457.019-4.674 1.796-9.15 4.944-12.455 3.148-3.305 7.413-5.17 11.865-5.191Z" fill="#1CA1EF"/><path d="M269.167 68.847c13.506 22.37 15.877 50.924-10.257 66.543-24.101 14.403-49.091-6.1-61.176-6.488-9.013-.327-17.269 6.514-24.233-5.021-4.537-7.515-.271-15.06 5.66-18.604 22.071-13.19 45.527 14.403 63.701 3.542 10.003-5.978 12.144-15.8 5.81-26.293-13.507-22.37-32.692.983-42.921-15.96-3.693-6.117-2.97-13.694 4.44-18.122 18.175-10.867 46.1-.925 58.976 20.403Zm-107.276 62.926c2.273 3.808 2.859 8.404 1.632 12.789-1.226 4.386-4.167 8.206-8.183 10.629-4.035 2.391-8.807 3.182-13.275 2.199-4.469-.983-8.272-3.659-10.581-7.445-2.277-3.807-2.866-8.405-1.64-12.793 1.227-4.387 4.17-8.208 8.188-10.63 4.037-2.39 8.809-3.179 13.278-2.196 4.468.983 8.271 3.66 10.581 7.447Z" fill="#1CA1EF"/><path d="M24.844 67.914c13.569-22.333 37.835-37.76 63.925-22.069 24.06 14.47 17.517 46.032 22.819 56.844 3.92 8.081 13.857 12.146 6.86 23.663-4.558 7.502-13.256 7.274-19.177 3.713-22.033-13.251-8.472-46.777-26.615-57.689-9.987-6.006-19.715-3.3-26.08 7.175-13.569 22.332 16.148 28.297 5.87 45.212-3.71 6.106-10.78 9.01-18.177 4.561-18.15-10.91-22.362-40.12-9.425-61.41Zm106.042 64.962c2.322-3.778 6.133-6.441 10.603-7.411 4.47-.97 9.239-.168 13.268 2.232 4.011 2.433 6.943 6.261 8.157 10.65 1.215 4.39.614 8.985-1.672 12.786-2.319 3.782-6.13 6.448-10.602 7.419-4.472.971-9.242.168-13.272-2.235-4.01-2.434-6.941-6.263-8.155-10.653-1.215-4.391-.613-8.987 1.673-12.788Z" fill="#1CA1EF"/><ellipse cx="146.813" cy="142.159" rx="20" ry="19.898" fill="#1CA1EF"/><path d="M57.278 168.057v16h-2.922l-6.96-10.07h-.118v10.07h-3.383v-16h2.97l6.905 10.063h.141v-10.063h3.367Zm8.155 16.235c-1.214 0-2.264-.258-3.149-.774a5.294 5.294 0 0 1-2.039-2.172c-.48-.932-.719-2.013-.719-3.242 0-1.24.24-2.323.719-3.25a5.234 5.234 0 0 1 2.04-2.172c.885-.521 1.934-.781 3.148-.781 1.213 0 2.26.26 3.14.781a5.22 5.22 0 0 1 2.047 2.172c.48.927.719 2.01.719 3.25 0 1.229-.24 2.31-.719 3.242a5.28 5.28 0 0 1-2.047 2.172c-.88.516-1.927.774-3.14.774Zm.015-2.579c.552 0 1.013-.156 1.383-.468.37-.318.648-.75.836-1.297.193-.547.289-1.17.289-1.867 0-.698-.096-1.321-.29-1.868-.187-.546-.465-.979-.835-1.296-.37-.318-.83-.477-1.383-.477-.557 0-1.026.159-1.406.477-.375.317-.659.75-.852 1.296-.187.547-.28 1.17-.28 1.868 0 .697.093 1.32.28 1.867.193.547.477.979.852 1.297.38.312.849.468 1.406.468Zm14.438-9.656v2.5h-7.227v-2.5h7.227Zm-5.586-2.875h3.328v11.188c0 .307.047.547.14.718a.776.776 0 0 0 .391.352c.172.068.37.102.594.102.156 0 .312-.014.469-.04l.359-.07.523 2.477a9.126 9.126 0 0 1-.703.179c-.302.073-.669.118-1.101.133-.802.031-1.505-.075-2.11-.32a2.943 2.943 0 0 1-1.398-1.141c-.334-.515-.498-1.166-.492-1.953v-11.625Zm11.34 7.938v6.937H82.31v-16h3.235v6.117h.14A3.397 3.397 0 0 1 87 172.51c.604-.406 1.362-.609 2.273-.609.834 0 1.56.182 2.18.547a3.65 3.65 0 0 1 1.453 1.554c.35.672.521 1.477.516 2.415v7.64h-3.328v-7.047c.005-.739-.183-1.315-.563-1.726-.375-.412-.9-.617-1.578-.617-.453 0-.854.096-1.203.289a2.048 2.048 0 0 0-.813.843c-.192.365-.291.805-.297 1.321Zm10.4 6.937v-12h3.328v12H96.04Zm1.672-13.547c-.495 0-.92-.164-1.274-.492a1.595 1.595 0 0 1-.523-1.195c0-.459.174-.852.523-1.18.355-.333.779-.5 1.274-.5s.916.167 1.265.5c.355.328.532.721.532 1.18 0 .463-.177.862-.532 1.195-.349.328-.77.492-1.265.492Zm7.65 6.61v6.937h-3.328v-12h3.172v2.117h.141a3.34 3.34 0 0 1 1.335-1.656c.625-.411 1.383-.617 2.274-.617.833 0 1.56.182 2.18.547a3.719 3.719 0 0 1 1.445 1.562c.344.672.516 1.474.516 2.407v7.64h-3.329v-7.047c.006-.734-.182-1.307-.562-1.718-.38-.417-.904-.625-1.57-.625-.448 0-.844.096-1.188.289a2.018 2.018 0 0 0-.797.843c-.187.365-.284.805-.289 1.321Zm15.764 11.687c-1.078 0-2.003-.148-2.774-.445-.765-.292-1.375-.69-1.828-1.195a3.685 3.685 0 0 1-.883-1.704l3.079-.414c.093.24.242.464.445.672.203.209.471.375.805.5.338.13.75.196 1.234.196.724 0 1.32-.178 1.789-.532.474-.349.711-.935.711-1.758v-2.195h-.141a3.133 3.133 0 0 1-.656.945c-.292.297-.667.54-1.125.727-.458.188-1.005.281-1.641.281-.901 0-1.721-.208-2.46-.625-.735-.422-1.321-1.065-1.758-1.929-.433-.87-.649-1.969-.649-3.297 0-1.36.222-2.495.664-3.407.443-.911 1.032-1.593 1.766-2.046a4.555 4.555 0 0 1 2.43-.68c.672 0 1.234.114 1.687.344.453.224.818.505 1.094.843.281.334.497.662.648.985h.125v-2.016h3.305v12.117c0 1.021-.25 1.875-.75 2.563-.5.687-1.193 1.203-2.078 1.547-.88.349-1.893.523-3.039.523Zm.07-7.422c.537 0 .99-.133 1.36-.398.375-.271.661-.656.859-1.156.203-.506.305-1.11.305-1.813 0-.703-.099-1.312-.297-1.828-.198-.521-.485-.925-.86-1.211-.375-.286-.83-.43-1.367-.43-.547 0-1.008.149-1.383.446-.375.291-.658.698-.851 1.218-.193.521-.289 1.123-.289 1.805 0 .693.096 1.292.289 1.797.198.5.482.888.851 1.164.375.271.836.406 1.383.406Zm19.92-9.328v2.5h-7.226v-2.5h7.226Zm-5.586-2.875h3.328v11.188c0 .307.047.547.141.718a.776.776 0 0 0 .391.352c.171.068.369.102.593.102.157 0 .313-.014.469-.04l.359-.07.524 2.477a9.166 9.166 0 0 1-.703.179 5.59 5.59 0 0 1-1.102.133c-.802.031-1.505-.075-2.109-.32a2.948 2.948 0 0 1-1.399-1.141c-.333-.515-.497-1.166-.492-1.953v-11.625Zm13.047 15.11c-1.214 0-2.263-.258-3.148-.774a5.288 5.288 0 0 1-2.039-2.172c-.48-.932-.719-2.013-.719-3.242 0-1.24.239-2.323.719-3.25a5.228 5.228 0 0 1 2.039-2.172c.885-.521 1.934-.781 3.148-.781 1.214 0 2.26.26 3.141.781a5.228 5.228 0 0 1 2.047 2.172c.479.927.718 2.01.718 3.25 0 1.229-.239 2.31-.718 3.242a5.288 5.288 0 0 1-2.047 2.172c-.881.516-1.927.774-3.141.774Zm.016-2.579c.552 0 1.013-.156 1.382-.468.37-.318.649-.75.836-1.297.193-.547.289-1.17.289-1.867 0-.698-.096-1.321-.289-1.868-.187-.546-.466-.979-.836-1.296-.369-.318-.83-.477-1.382-.477-.558 0-1.026.159-1.407.477-.375.317-.658.75-.851 1.296-.188.547-.281 1.17-.281 1.868 0 .697.093 1.32.281 1.867.193.547.476.979.851 1.297.381.312.849.468 1.407.468Zm23.131-6.234-3.047.188a1.576 1.576 0 0 0-.336-.704 1.791 1.791 0 0 0-.68-.507c-.276-.131-.607-.196-.992-.196-.516 0-.951.11-1.305.328-.354.214-.531.5-.531.86 0 .286.114.528.344.726.229.198.622.357 1.179.477l2.172.437c1.167.24 2.037.625 2.61 1.157.572.531.859 1.229.859 2.093 0 .787-.232 1.477-.695 2.071-.459.593-1.089 1.057-1.891 1.39-.797.328-1.716.493-2.758.493-1.588 0-2.854-.331-3.797-.993-.937-.666-1.487-1.573-1.648-2.718l3.273-.172c.099.484.339.854.719 1.109.38.25.867.375 1.461.375.583 0 1.052-.112 1.406-.336.36-.229.542-.523.547-.883a.918.918 0 0 0-.383-.742c-.25-.198-.635-.349-1.156-.453l-2.078-.414c-1.172-.234-2.044-.641-2.617-1.219-.568-.578-.852-1.315-.852-2.211 0-.771.209-1.435.625-1.992.422-.557 1.013-.987 1.774-1.289.765-.302 1.661-.453 2.687-.453 1.516 0 2.708.32 3.578.961.875.64 1.386 1.513 1.532 2.617Zm7.837 8.813c-1.234 0-2.296-.25-3.187-.75a5.137 5.137 0 0 1-2.047-2.141c-.479-.927-.719-2.024-.719-3.289 0-1.235.24-2.318.719-3.25a5.32 5.32 0 0 1 2.023-2.18c.875-.521 1.902-.781 3.079-.781.791 0 1.528.127 2.211.383.687.25 1.286.627 1.796 1.133.516.505.917 1.14 1.204 1.906.286.76.429 1.651.429 2.672v.914h-10.133v-2.063h7c0-.479-.104-.903-.312-1.273a2.23 2.23 0 0 0-.867-.867c-.365-.214-.789-.321-1.274-.321-.505 0-.953.117-1.343.352a2.461 2.461 0 0 0-.907.93 2.64 2.64 0 0 0-.336 1.289v1.961c0 .593.11 1.106.328 1.539.224.432.54.765.946 1 .406.234.888.351 1.445.351.37 0 .708-.052 1.016-.156.307-.104.57-.261.789-.469.219-.208.385-.463.5-.765l3.078.203a4.205 4.205 0 0 1-.961 1.937c-.479.547-1.099.974-1.859 1.281-.756.302-1.628.454-2.618.454Zm13.149 0c-1.235 0-2.297-.25-3.188-.75a5.15 5.15 0 0 1-2.047-2.141c-.479-.927-.718-2.024-.718-3.289 0-1.235.239-2.318.718-3.25a5.322 5.322 0 0 1 2.024-2.18c.875-.521 1.901-.781 3.078-.781a6.24 6.24 0 0 1 2.211.383c.687.25 1.286.627 1.797 1.133.515.505.917 1.14 1.203 1.906.286.76.43 1.651.43 2.672v.914h-10.133v-2.063h7c0-.479-.104-.903-.313-1.273a2.23 2.23 0 0 0-.867-.867c-.364-.214-.789-.321-1.273-.321-.505 0-.953.117-1.344.352a2.459 2.459 0 0 0-.906.93 2.62 2.62 0 0 0-.336 1.289v1.961c0 .593.109 1.106.328 1.539.224.432.539.765.945 1 .406.234.888.351 1.446.351a3.15 3.15 0 0 0 1.015-.156 2.024 2.024 0 0 0 1.289-1.234l3.078.203a4.195 4.195 0 0 1-.961 1.937c-.479.547-1.099.974-1.859 1.281-.755.302-1.628.454-2.617.454Zm16.099-7.172v6.937h-3.328v-16h3.235v6.117h.14a3.4 3.4 0 0 1 1.313-1.664c.604-.406 1.362-.609 2.273-.609.834 0 1.56.182 2.18.547a3.65 3.65 0 0 1 1.453 1.554c.349.672.521 1.477.516 2.415v7.64h-3.328v-7.047c.005-.739-.183-1.315-.563-1.726-.375-.412-.901-.617-1.578-.617-.453 0-.854.096-1.203.289a2.048 2.048 0 0 0-.813.843c-.192.365-.291.805-.297 1.321Zm15.87 7.172c-1.235 0-2.297-.25-3.188-.75a5.143 5.143 0 0 1-2.047-2.141c-.479-.927-.719-2.024-.719-3.289 0-1.235.24-2.318.719-3.25a5.315 5.315 0 0 1 2.024-2.18c.875-.521 1.901-.781 3.078-.781.791 0 1.528.127 2.211.383.687.25 1.286.627 1.797 1.133.515.505.916 1.14 1.203 1.906.286.76.429 1.651.429 2.672v.914h-10.132v-2.063h7c0-.479-.105-.903-.313-1.273a2.23 2.23 0 0 0-.867-.867c-.365-.214-.789-.321-1.274-.321-.505 0-.953.117-1.343.352a2.461 2.461 0 0 0-.907.93 2.63 2.63 0 0 0-.335 1.289v1.961c0 .593.109 1.106.328 1.539.224.432.539.765.945 1 .406.234.888.351 1.445.351.37 0 .709-.052 1.016-.156.307-.104.57-.261.789-.469.219-.208.385-.463.5-.765l3.078.203a4.195 4.195 0 0 1-.961 1.937c-.479.547-1.099.974-1.859 1.281-.755.302-1.628.454-2.617.454Zm7.679-.235v-12h3.227v2.094h.125c.219-.745.586-1.307 1.101-1.688a2.9 2.9 0 0 1 1.782-.578 5.015 5.015 0 0 1 1.047.117v2.954a4.304 4.304 0 0 0-.649-.125 5.74 5.74 0 0 0-.758-.055c-.489 0-.927.107-1.312.32-.38.209-.683.5-.906.875a2.524 2.524 0 0 0-.329 1.297v6.789h-3.328Zm13.912.235c-1.234 0-2.296-.25-3.187-.75a5.137 5.137 0 0 1-2.047-2.141c-.479-.927-.719-2.024-.719-3.289 0-1.235.24-2.318.719-3.25a5.32 5.32 0 0 1 2.023-2.18c.875-.521 1.901-.781 3.079-.781.791 0 1.528.127 2.211.383.687.25 1.286.627 1.796 1.133.516.505.917 1.14 1.204 1.906.286.76.429 1.651.429 2.672v.914h-10.133v-2.063h7c0-.479-.104-.903-.312-1.273a2.237 2.237 0 0 0-.867-.867c-.365-.214-.789-.321-1.274-.321-.505 0-.953.117-1.343.352a2.461 2.461 0 0 0-.907.93 2.64 2.64 0 0 0-.336 1.289v1.961c0 .593.11 1.106.328 1.539.224.432.54.765.946 1 .406.234.888.351 1.445.351.37 0 .708-.052 1.016-.156.307-.104.57-.261.789-.469.219-.208.385-.463.5-.765l3.078.203a4.205 4.205 0 0 1-.961 1.937c-.479.547-1.099.974-1.859 1.281-.756.302-1.628.454-2.618.454Z" fill="#F5FEFF"/></g><defs><clipPath id="a"><path fill="#fff" transform="translate(.04)" d="M0 0h295.931v195.21H0z"/></clipPath></defs></svg>