<svg width="24" height="24" viewBox="0 0 24 24" fill="none" xmlns="http://www.w3.org/2000/svg">
<path d="M12 5.25342C11.1594 5.25342 10.3377 5.50268 9.63883 5.96967C8.93992 6.43667 8.39519 7.10043 8.07351 7.87701C7.75184 8.6536 7.66768 9.50813 7.83166 10.3326C7.99565 11.157 8.40043 11.9142 8.9948 12.5086C9.58917 13.103 10.3464 13.5078 11.1709 13.6718C11.9953 13.8357 12.8498 13.7516 13.6264 13.4299C14.403 13.1082 15.0668 12.5635 15.5337 11.8646C16.0007 11.1657 16.25 10.344 16.25 9.50342C16.25 8.37625 15.8022 7.29524 15.0052 6.49821C14.2082 5.70118 13.1272 5.25342 12 5.25342Z" fill="#C8D8E7"/>
<path d="M12 0C9.62663 0 7.30655 0.703788 5.33316 2.02236C3.35977 3.34094 1.8217 5.21508 0.913451 7.4078C0.0051994 9.60051 -0.232441 12.0133 0.230582 14.3411C0.693605 16.6689 1.83649 18.807 3.51472 20.4853C5.19295 22.1635 7.33115 23.3064 9.65892 23.7694C11.9867 24.2324 14.3995 23.9948 16.5922 23.0865C18.7849 22.1783 20.6591 20.6402 21.9776 18.6668C23.2962 16.6934 24 14.3734 24 12C23.9964 8.8185 22.731 5.76834 20.4813 3.51868C18.2317 1.26902 15.1815 0.00358448 12 0V0ZM18.8507 19.6507C18.8337 18.5263 18.3756 17.4537 17.5751 16.6639C16.7746 15.8741 15.6959 15.4305 14.5714 15.4286H9.42858C8.30409 15.4305 7.22537 15.8741 6.42491 16.6639C5.62445 17.4537 5.16633 18.5263 5.14929 19.6507C3.59492 18.2628 2.49877 16.4354 2.00601 14.4107C1.51324 12.3859 1.64709 10.2593 2.38984 8.31228C3.13259 6.36529 4.44919 4.68983 6.16532 3.50774C7.88145 2.32566 9.91615 1.69271 12 1.69271C14.0839 1.69271 16.1186 2.32566 17.8347 3.50774C19.5508 4.68983 20.8674 6.36529 21.6102 8.31228C22.3529 10.2593 22.4868 12.3859 21.994 14.4107C21.5012 16.4354 20.4051 18.2628 18.8507 19.6507V19.6507Z" fill="#C8D8E7"/>
</svg>
