<svg width="24" height="24" viewBox="0 0 24 24" fill="none" xmlns="http://www.w3.org/2000/svg">
<path d="M10.1562 19.4507C9.931 19.4746 9.72932 19.3102 9.70557 19.0835L8.97152 12.0631C8.94786 11.8364 9.11114 11.6333 9.33632 11.6095L9.74397 11.5663C9.96915 11.5424 10.1709 11.7068 10.1946 11.9335L10.9286 18.9539C10.9524 19.1806 10.7891 19.3837 10.5639 19.4075L10.1562 19.4507Z" fill="#DA4167"/>
<path d="M13.8456 19.4075C13.6204 19.3837 13.4571 19.1806 13.4808 18.9539L14.2149 11.9335C14.2386 11.7068 14.4403 11.5424 14.6655 11.5663L15.0731 11.6095C15.2983 11.6333 15.4617 11.8364 15.4379 12.0631L14.7039 19.0835C14.6802 19.3102 14.4784 19.4746 14.2533 19.4507L13.8456 19.4075Z" fill="#DA4167"/>
<path fill-rule="evenodd" clip-rule="evenodd" d="M10.1121 0C9.59036 0 9.11873 0.317862 8.91318 0.808108L7.94767 3.11111H3.73913C2.77864 3.11111 2 3.90705 2 4.88889V7.11111C2 8.01714 2.66304 8.76489 3.52016 8.87492L6.20849 23.2854C6.28978 23.7009 6.64666 24 7.06117 24H17.7734C18.2038 24 18.5695 23.6781 18.6333 23.243L20.5879 8.85748C21.3921 8.70111 22 7.97867 22 7.11111V4.88889C22 3.90705 21.2214 3.11111 20.2609 3.11111H16.051L15.0855 0.808108C14.8799 0.317862 14.4084 0 13.8865 0H10.1121ZM14.1588 3.11111L13.8257 2.31652C13.6887 1.98968 13.3743 1.77778 13.0265 1.77778H10.9722C10.6244 1.77778 10.31 1.98968 10.1729 2.31652L9.83982 3.11111H14.1588ZM18.7904 9.2784C18.8207 9.05612 18.6504 8.85794 18.4294 8.85849L5.74027 8.88785C5.51283 8.8884 5.34168 9.0984 5.38375 9.32538L7.6346 21.4698C7.71546 21.9062 8.09077 22.2222 8.528 22.2222H16.2326C16.6865 22.2222 17.0709 21.8823 17.1332 21.4258L18.7904 9.2784ZM19.3913 7.11111C19.8715 7.11111 20.2609 6.71314 20.2609 6.22222V5.77778C20.2609 5.28686 19.8715 4.88889 19.3913 4.88889H4.6087C4.12845 4.88889 3.73913 5.28686 3.73913 5.77778V6.22222C3.73913 6.71314 4.12845 7.11111 4.60869 7.11111H19.3913Z" fill="#DA4167"/>
</svg>
