<svg width="20" height="20" viewBox="0 0 20 20" fill="none" xmlns="http://www.w3.org/2000/svg">
<path d="M8.3335 12.5H10.4168C10.7483 12.5 11.0663 12.3683 11.3007 12.1339C11.5351 11.8995 11.6668 11.5815 11.6668 11.25V11.25C11.6668 10.9185 11.5351 10.6005 11.3007 10.3661C11.0663 10.1317 10.7483 10 10.4168 10H9.5835C9.25198 10 8.93403 9.8683 8.69961 9.63388C8.46519 9.39946 8.3335 9.08152 8.3335 8.75C8.3335 8.41848 8.46519 8.10054 8.69961 7.86612C8.93403 7.6317 9.25198 7.5 9.5835 7.5H11.6668" stroke="#F5FEFF" stroke-width="2" stroke-linecap="round" stroke-linejoin="round"/>
<path d="M10 7V6V7ZM10 14V13V14ZM10 1C8.21997 1 6.47991 1.52784 4.99987 2.51677C3.51983 3.50571 2.36628 4.91131 1.68509 6.55585C1.0039 8.20038 0.82567 10.01 1.17294 11.7558C1.5202 13.5016 2.37737 15.1053 3.63604 16.364C4.89471 17.6226 6.49836 18.4798 8.24419 18.8271C9.99002 19.1743 11.7996 18.9961 13.4442 18.3149C15.0887 17.6337 16.4943 16.4802 17.4832 15.0001C18.4722 13.5201 19 11.78 19 10C19 7.61305 18.0518 5.32386 16.364 3.63604C14.6761 1.94821 12.3869 1 10 1V1Z" stroke="#F5FEFF" stroke-width="2" stroke-linecap="round" stroke-linejoin="round"/>
</svg>
