<svg width="16" height="16" viewBox="0 0 17 16" fill="none" xmlns="http://www.w3.org/2000/svg">
<path d="M9.82249 7.99993L16.002 1.82068C16.418 1.40468 16.418 0.729473 16.002 0.312403C15.5859 -0.104667 14.9107 -0.103601 14.4936 0.312403L8.31416 6.49165L2.13471 0.312403C1.71869 -0.103601 1.04346 -0.103601 0.626378 0.312403C0.209294 0.728406 0.210361 1.40361 0.626378 1.82068L6.80584 7.99993L0.626378 14.1792C0.210361 14.5952 0.210361 15.2704 0.626378 15.6875C0.834387 15.8955 1.1064 16 1.38054 16C1.65469 16 1.9267 15.8955 2.13471 15.6875L8.31416 9.50821L14.4936 15.6875C14.7016 15.8955 14.9736 16 15.2478 16C15.5219 16 15.7939 15.8955 16.002 15.6875C16.418 15.2715 16.418 14.5963 16.002 14.1792L9.82249 7.99993Z" fill="#F5FEFF"/>
</svg>
