<svg width="16" height="16" viewBox="0 0 16 16" fill="none" xmlns="http://www.w3.org/2000/svg">
<path fill-rule="evenodd" clip-rule="evenodd" d="M0.5 3.32594C0.5 2.6978 0.737053 2.09538 1.15901 1.65121C1.58097 1.20705 2.15326 0.95752 2.75 0.95752H13.25C13.8467 0.95752 14.419 1.20705 14.841 1.65121C15.2629 2.09538 15.5 2.6978 15.5 3.32594V11.2207C15.5 11.8488 15.2629 12.4512 14.841 12.8954C14.419 13.3396 13.8467 13.5891 13.25 13.5891H4.75025C4.58797 13.5891 4.43007 13.6445 4.30025 13.747L1.7 15.7996C1.58857 15.8876 1.45608 15.9412 1.31735 15.9543C1.17863 15.9675 1.03917 15.9397 0.91459 15.8742C0.79001 15.8086 0.685238 15.7078 0.612012 15.5831C0.538786 15.4584 0.5 15.3147 0.5 15.168V3.32594ZM4.25 3.32594C4.05109 3.32594 3.86032 3.40912 3.71967 3.55717C3.57902 3.70523 3.5 3.90603 3.5 4.11541C3.5 4.3248 3.57902 4.5256 3.71967 4.67366C3.86032 4.82171 4.05109 4.90489 4.25 4.90489H11.75C11.9489 4.90489 12.1397 4.82171 12.2803 4.67366C12.421 4.5256 12.5 4.3248 12.5 4.11541C12.5 3.90603 12.421 3.70523 12.2803 3.55717C12.1397 3.40912 11.9489 3.32594 11.75 3.32594H4.25ZM4.25 6.48383C4.05109 6.48383 3.86032 6.56701 3.71967 6.71507C3.57902 6.86312 3.5 7.06393 3.5 7.27331C3.5 7.48269 3.57902 7.6835 3.71967 7.83155C3.86032 7.97961 4.05109 8.06278 4.25 8.06278H11.75C11.9489 8.06278 12.1397 7.97961 12.2803 7.83155C12.421 7.6835 12.5 7.48269 12.5 7.27331C12.5 7.06393 12.421 6.86312 12.2803 6.71507C12.1397 6.56701 11.9489 6.48383 11.75 6.48383H4.25ZM4.25 9.64173C4.05109 9.64173 3.86032 9.72491 3.71967 9.87296C3.57902 10.021 3.5 10.2218 3.5 10.4312C3.5 10.6406 3.57902 10.8414 3.71967 10.9894C3.86032 11.1375 4.05109 11.2207 4.25 11.2207H7.25C7.44891 11.2207 7.63968 11.1375 7.78033 10.9894C7.92098 10.8414 8 10.6406 8 10.4312C8 10.2218 7.92098 10.021 7.78033 9.87296C7.63968 9.72491 7.44891 9.64173 7.25 9.64173H4.25Z" fill="#F5FEFF"/>
</svg>
