<svg width="24" height="25" viewBox="0 0 24 25" fill="none" xmlns="http://www.w3.org/2000/svg">
<path d="M24 8.4981C24 8.73829 23.9081 8.96865 23.7444 9.13849C23.5807 9.30833 23.3587 9.40375 23.1273 9.40376H21.3818V11.2151C21.3818 11.4553 21.2899 11.6856 21.1262 11.8555C20.9625 12.0253 20.7406 12.1207 20.5091 12.1207C20.2776 12.1207 20.0556 12.0253 19.892 11.8555C19.7283 11.6856 19.6364 11.4553 19.6364 11.2151V9.40376H17.8909C17.6594 9.40376 17.4375 9.30834 17.2738 9.13849C17.1101 8.96865 17.0182 8.73829 17.0182 8.4981C17.0182 8.2579 17.1101 8.02754 17.2738 7.8577C17.4375 7.68786 17.6594 7.59244 17.8909 7.59244H19.6364V5.78112C19.6364 5.54092 19.7283 5.31057 19.892 5.14072C20.0556 4.97088 20.2776 4.87546 20.5091 4.87546C20.7406 4.87546 20.9625 4.97088 21.1262 5.14072C21.2899 5.31057 21.3818 5.54092 21.3818 5.78112V7.59244H23.1273C23.3587 7.59244 23.5807 7.68786 23.7444 7.8577C23.9081 8.02754 24 8.2579 24 8.4981ZM13.5273 3.9698H14.4V4.87546C14.4 5.11566 14.4919 5.34601 14.6556 5.51586C14.8193 5.6857 15.0413 5.78112 15.2727 5.78112C15.5042 5.78112 15.7262 5.6857 15.8898 5.51586C16.0535 5.34601 16.1455 5.11566 16.1455 4.87546V3.9698H17.0182C17.2496 3.9698 17.4716 3.87439 17.6353 3.70454C17.799 3.5347 17.8909 3.30434 17.8909 3.06414C17.8909 2.82395 17.799 2.59359 17.6353 2.42375C17.4716 2.2539 17.2496 2.15849 17.0182 2.15849H16.1455V1.25283C16.1455 1.01263 16.0535 0.782273 15.8898 0.612429C15.7262 0.442585 15.5042 0.347168 15.2727 0.347168C15.0413 0.347168 14.8193 0.442585 14.6556 0.612429C14.4919 0.782273 14.4 1.01263 14.4 1.25283V2.15849H13.5273C13.2958 2.15849 13.0738 2.2539 12.9102 2.42375C12.7465 2.59359 12.6545 2.82395 12.6545 3.06414C12.6545 3.30434 12.7465 3.5347 12.9102 3.70454C13.0738 3.87439 13.2958 3.9698 13.5273 3.9698ZM21.4092 15.5301C21.4655 15.7053 21.4688 15.8941 21.4188 16.0714C20.9062 17.9755 19.9221 19.7071 18.5644 21.094C17.2066 22.4808 15.5226 23.4746 13.6799 23.9764C11.8371 24.4782 9.8999 24.4705 8.0609 23.9542C6.2219 23.4378 4.54525 22.4307 3.19775 21.0331C1.85026 19.6356 0.878888 17.8962 0.380287 15.9881C-0.118313 14.08 -0.126764 12.0696 0.355775 10.1571C0.838315 8.24454 1.79502 6.49645 3.13072 5.08672C4.46641 3.677 6.13454 2.65478 7.96912 2.12178C8.12008 2.0748 8.28048 2.07111 8.4333 2.11108C8.58612 2.15106 8.72567 2.23323 8.83712 2.34886C8.94858 2.46449 9.0278 2.60927 9.06637 2.76784C9.10494 2.92642 9.10142 3.09287 9.0562 3.24954C8.62554 4.87007 8.61638 6.58009 9.02964 8.20549C9.44289 9.83089 10.2638 11.3136 11.4088 12.5027C12.5538 13.6919 13.982 14.5449 15.548 14.975C17.114 15.405 18.7618 15.3968 20.3238 14.9511C20.5417 14.8814 20.7773 14.903 20.9801 15.0112C21.183 15.1194 21.337 15.3056 21.4092 15.5301Z" fill="#C8D8E7"/>
</svg>
