<svg width="20" height="20" viewBox="0 0 20 20" fill="none" xmlns="http://www.w3.org/2000/svg">
<path d="M9.99946 0C15.522 0 19.9989 4.47715 19.9989 10C19.9989 15.5228 15.522 20 9.99946 20C4.47691 20 0 15.5228 0 10C0 4.47715 4.47691 0 9.99946 0ZM9.99946 1.49977C5.30516 1.49977 1.49969 5.30545 1.49969 10C1.49969 14.6945 5.30516 18.5002 9.99946 18.5002C14.6938 18.5002 18.4992 14.6945 18.4992 10C18.4992 5.30545 14.6938 1.49977 9.99946 1.49977ZM6.46194 12.7829C7.3109 13.8604 8.60164 14.5009 9.99944 14.5009C11.3954 14.5009 12.6846 13.8622 13.5337 12.7871C13.7903 12.4621 14.2619 12.4067 14.5869 12.6634C14.9118 12.9201 14.9672 13.3916 14.7105 13.7166C13.58 15.1481 11.8592 16.0006 9.99944 16.0006C8.1372 16.0006 6.41433 15.1458 5.28396 13.7111C5.02767 13.3858 5.0836 12.9143 5.40889 12.658C5.73418 12.4016 6.20564 12.4576 6.46194 12.7829ZM7.00053 6.75115C7.69035 6.75115 8.24956 7.31038 8.24956 8.00024C8.24956 8.6901 7.69035 9.24934 7.00053 9.24934C6.31072 9.24934 5.75151 8.6901 5.75151 8.00024C5.75151 7.31038 6.31072 6.75115 7.00053 6.75115ZM12.9993 6.75115C13.6891 6.75115 14.2483 7.31038 14.2483 8.00024C14.2483 8.6901 13.6891 9.24934 12.9993 9.24934C12.3095 9.24934 11.7503 8.6901 11.7503 8.00024C11.7503 7.31038 12.3095 6.75115 12.9993 6.75115Z" fill="#1CA1EF"/>
</svg>
