<svg width="24" height="25" viewBox="0 0 24 25" fill="none" xmlns="http://www.w3.org/2000/svg">
<path d="M20.4853 4.20902C18.2188 1.94252 15.2053 0.694336 12 0.694336C8.79464 0.694336 5.78123 1.94252 3.51469 4.20902C1.24819 6.47557 0 9.48902 0 12.6943C0 15.8996 1.24819 18.9131 3.51469 21.1796C5.78123 23.4461 8.79464 24.6943 12 24.6943C15.2053 24.6943 18.2188 23.4461 20.4853 21.1796C22.7518 18.9131 24 15.8996 24 12.6943C24 9.48902 22.7518 6.47557 20.4853 4.20902ZM12 5.17741C12.9959 5.17741 13.8031 5.9847 13.8031 6.98055C13.8031 7.97641 12.9959 8.7837 12 8.7837C11.0041 8.7837 10.1969 7.97641 10.1969 6.98055C10.1969 5.9847 11.0041 5.17741 12 5.17741ZM13.8031 20.3939H10.1969C9.34678 20.3939 8.65763 19.7048 8.65763 18.8547C8.65763 18.0046 9.34674 17.3155 10.1969 17.3155H10.2408V13.525C9.38934 13.4021 8.73502 12.6694 8.73502 11.7839C8.73502 10.8124 9.52261 10.0248 10.4942 10.0248H12C12.9715 10.0248 13.7592 10.8124 13.7592 11.7839V17.3155H13.8031C14.6532 17.3155 15.3424 18.0046 15.3424 18.8547C15.3424 19.7048 14.6532 20.3939 13.8031 20.3939Z" fill="#C8D8E7"/>
</svg>
