<svg width="22" height="22" viewBox="0 0 23 22" fill="none" xmlns="http://www.w3.org/2000/svg">
<path fill-rule="evenodd" clip-rule="evenodd" d="M13.5864 1.09656L21.7368 7.76452L21.7788 7.81068C21.9057 7.95021 22.1 8.1725 22.2646 8.43768C22.4216 8.69077 22.6079 9.07128 22.6079 9.51721V20.6035C22.6079 21.5374 21.8521 22.2979 20.9156 22.2979H15.6357C14.9347 22.2979 14.3665 21.7296 14.3665 21.0286V17.0465C14.3665 15.5242 13.1359 14.2937 11.6221 14.2937C10.1084 14.2937 8.8778 15.5242 8.8778 17.0465V21.0286C8.8778 21.7296 8.3096 22.2979 7.6086 22.2979H2.30022C1.36368 22.2979 0.60791 21.5374 0.60791 20.6035V9.38766C0.60791 8.83563 0.915055 8.39047 1.0901 8.16945C1.19217 8.04058 1.29222 7.93558 1.36633 7.86277C1.40389 7.82589 1.4361 7.79602 1.46033 7.77417C1.47247 7.76321 1.4827 7.75419 1.4907 7.74724L1.50103 7.73833L1.50489 7.73504L1.50718 7.73309C1.50718 7.73309 1.50784 7.73255 2.05272 8.37989L1.50718 7.73309L1.51627 7.72545L9.60151 1.09846C10.7154 0.0317184 12.4715 0.0308799 13.5864 1.09656Z" fill="#C8D8E7"/>
</svg>
