<svg width="20" height="20" viewBox="0 0 20 20" fill="none" xmlns="http://www.w3.org/2000/svg">
<path d="M19.9999 2.5V17.5C19.9999 18.8813 18.8811 20 17.4999 20H2.49988C1.11863 20 -0.00012207 18.8813 -0.00012207 17.5V2.5C-0.00012207 1.11875 1.11863 0 2.49988 0H17.4999C18.8811 0 19.9999 1.11875 19.9999 2.5ZM17.4999 2.5H2.49988V10.475L5.23738 7.7375L11.7749 14.275L13.0249 13.025C13.8124 12.395 14.9449 12.455 15.6624 13.1625L17.4999 15V2.5ZM11.2499 6.875C11.2499 5.84 12.0899 5 13.1249 5C14.1599 5 14.9999 5.84 14.9999 6.875C14.9999 7.91 14.1599 8.75 13.1249 8.75C12.0899 8.75 11.2499 7.91 11.2499 6.875Z" fill="#32CD32"/>
</svg>
