<svg width="15" height="14" viewBox="0 0 15 14" fill="none" xmlns="http://www.w3.org/2000/svg">
<path d="M13.7561 1.55943C12.9532 0.772022 11.8839 0.336303 10.7478 0.336303C9.6118 0.336303 8.53924 0.772022 7.73641 1.56254L7.50476 1.78974L7.26677 1.55632C6.46076 0.765798 5.39137 0.330078 4.25217 0.330078C3.11614 0.330078 2.04993 0.762685 1.24709 1.5532C0.441083 2.34372 0 3.39256 0 4.50676C0 5.62096 0.444256 6.6698 1.25026 7.4572L7.04781 13.1433C7.16839 13.2616 7.3334 13.3301 7.50793 13.3301C7.67929 13.3301 7.8443 13.2616 7.96806 13.1433L13.7497 7.46654C14.5557 6.67602 14.9968 5.62718 15 4.51298C15.0032 3.39879 14.5589 2.34995 13.7561 1.55943ZM4.20457 3.12179C3.44616 3.12179 2.82737 3.72869 2.82737 4.47253C2.82737 4.81488 2.54495 5.09187 2.1959 5.09187C1.84684 5.09187 1.56442 4.81488 1.56442 4.47253C1.56442 3.0471 2.74804 1.88622 4.2014 1.88622C4.55045 1.88622 4.83288 2.16321 4.83288 2.50556C4.83605 2.84791 4.55363 3.12179 4.20457 3.12179Z" fill="#DA4167"/>
</svg>
