<svg width="24" height="25" viewBox="0 0 24 25" fill="none" xmlns="http://www.w3.org/2000/svg">
<path d="M23.923 10.66C23.872 10.538 23.799 10.427 23.706 10.334L20.707 7.33498C20.316 6.94498 19.684 6.94498 19.293 7.33498C18.902 7.72596 18.902 8.35897 19.293 8.74897L20.586 10.042H15C14.447 10.042 14 10.4899 14 11.0419C14 11.5939 14.447 12.0419 15 12.0419H20.586L19.293 13.3349C18.902 13.7259 18.902 14.3589 19.293 14.7489C19.488 14.9449 19.744 15.0419 20 15.0419C20.256 15.0419 20.512 14.945 20.707 14.7489L23.706 11.7499C23.799 11.6579 23.872 11.5469 23.923 11.4239C24.024 11.18 24.024 10.904 23.923 10.66Z" fill="#DA4167"/>
<path d="M17 14.042C16.447 14.042 16 14.49 16 15.042V20.042H12V4.04198C12 3.60098 11.71 3.21098 11.287 3.08399L7.81397 2.04201H16V7.04202C16 7.59402 16.447 8.04201 17 8.04201C17.553 8.04201 18 7.59402 18 7.04202V1.04202C18 0.489977 17.553 0.0419922 17 0.0419922H0.999984C0.963984 0.0419922 0.931969 0.0569922 0.897 0.0609766C0.849984 0.0659922 0.807 0.0739609 0.762 0.0849766C0.657 0.111977 0.561984 0.152992 0.473016 0.208961C0.451031 0.222977 0.424031 0.223961 0.403031 0.239945C0.394969 0.245992 0.391969 0.257008 0.383953 0.263008C0.274969 0.348977 0.183984 0.453977 0.117984 0.578992C0.103969 0.605992 0.100969 0.635008 0.09 0.662992C0.0579844 0.738977 0.0230156 0.812992 0.0110156 0.896992C0.006 0.926992 0.015 0.954977 0.0140156 0.983992C0.0130312 1.00401 0 1.02201 0 1.04198V21.042C0 21.519 0.336984 21.929 0.804 22.022L10.804 24.022C10.869 24.036 10.935 24.042 11 24.042C11.229 24.042 11.454 23.9631 11.634 23.815C11.865 23.625 12 23.342 12 23.042V22.042H17C17.553 22.042 18 21.594 18 21.042V15.042C18 14.49 17.553 14.042 17 14.042Z" fill="#DA4167"/>
</svg>
