<svg width="25" height="40" viewBox="0 0 25 40" fill="none" xmlns="http://www.w3.org/2000/svg">
<path d="M11.9868 0C18.5442 0 25 3.18643 25 10.8081C25 17.8366 17.3667 20.5396 15.7273 23.0793C14.4966 24.9684 14.9076 27.6229 11.5262 27.6229C9.32347 27.6229 8.2475 25.7325 8.2475 24.0028C8.2475 17.5662 17.2107 16.1094 17.2107 10.8094C17.2107 7.89209 15.3707 6.16238 12.2951 6.16238C5.73771 6.16238 8.29827 13.2955 3.33188 13.2955C1.539 13.2955 1.91055e-07 12.1602 1.91055e-07 9.99936C-0.00120876 4.698 5.73529 0 11.9868 0ZM11.7317 31.1321C12.8445 31.1378 13.9101 31.6068 14.6968 32.4371C15.4835 33.2675 15.9277 34.392 15.9328 35.566C15.9284 36.7403 15.4844 37.8652 14.6975 38.6957C13.9106 39.5262 12.8447 39.995 11.7317 40C10.6186 39.9953 9.55226 39.5266 8.76513 38.6961C7.97801 37.8656 7.53383 36.7406 7.52938 35.566C7.53415 34.3916 7.97843 33.2668 8.76548 32.4363C9.55254 31.6059 10.6187 31.1371 11.7317 31.1321Z" fill="#1CA1EF"/>
</svg>
