<svg width="22" height="22" viewBox="0 0 22 22" fill="none" xmlns="http://www.w3.org/2000/svg">
<path d="M20.7118 3.43739L18.5608 1.28627C18.1549 0.880146 17.6725 0.558425 17.1416 0.339665C16.6106 0.120905 16.0416 0.00943579 15.4674 0.0116871C15.3533 0.0116871 15.2392 0.015812 15.1237 0.0247492V0H6.87457V0.0247492C6.76046 0.015812 6.64634 0.0116871 6.53086 0.0116871C5.95663 0.00943579 5.38765 0.120905 4.85671 0.339665C4.32578 0.558425 3.84341 0.880146 3.43743 1.28627L1.28647 3.43739C0.878614 3.84515 0.555081 4.32926 0.334347 4.86208C0.113612 5.3949 0 5.96599 0 6.54273C0 7.11947 0.113612 7.69056 0.334347 8.22339C0.555081 8.75621 0.878614 9.24032 1.28647 9.64807L1.34902 9.71063C1.75679 10.1184 2.24088 10.4419 2.77366 10.6626C3.30644 10.8833 3.87746 10.9969 4.45414 10.9969C5.03081 10.9969 5.60183 10.8833 6.13461 10.6626C6.66739 10.4419 7.15148 10.1184 7.55925 9.71063L7.78679 9.48377C8.16868 9.95715 8.65172 10.339 9.20046 10.6013C9.74919 10.8636 10.3497 10.9997 10.9579 10.9997H11.0404C11.6483 11.0002 12.2486 10.8646 12.7974 10.6029C13.3461 10.3412 13.8293 9.95996 14.2115 9.4872L14.439 9.71407C14.8468 10.1219 15.3309 10.4454 15.8637 10.6661C16.3964 10.8868 16.9675 11.0003 17.5441 11.0003C18.1208 11.0003 18.6918 10.8868 19.2246 10.6661C19.7574 10.4454 20.2415 10.1219 20.6493 9.71407L20.7118 9.65151C21.1202 9.24369 21.4441 8.75937 21.6652 8.22623C21.8862 7.69309 22 7.1216 22 6.54445C22 5.9673 21.8862 5.39581 21.6652 4.86268C21.4441 4.32954 21.1202 3.84521 20.7118 3.43739Z" fill="#C8D8E7"/>
<path d="M17.8872 13.7495H17.8597C17.6809 13.7494 17.5039 13.7846 17.3387 13.8529C17.1735 13.9213 17.0234 14.0216 16.897 14.148C16.7706 14.2744 16.6704 14.4245 16.602 14.5897C16.5336 14.7549 16.4985 14.9319 16.4986 15.1107V18.5619C16.4986 18.7442 16.4261 18.9191 16.2972 19.048C16.1683 19.1769 15.9935 19.2493 15.8111 19.2493H6.18714C6.00482 19.2493 5.82997 19.1769 5.70106 19.048C5.57214 18.9191 5.49971 18.7442 5.49971 18.5619V15.1107C5.4998 14.9319 5.46466 14.7549 5.39629 14.5897C5.32792 14.4245 5.22766 14.2744 5.10126 14.148C4.97485 14.0216 4.82476 13.9213 4.65959 13.8529C4.49441 13.7846 4.31737 13.7494 4.13861 13.7495H4.11111C3.93234 13.7494 3.75531 13.7846 3.59013 13.8529C3.42495 13.9213 3.27487 14.0216 3.14846 14.148C3.02205 14.2744 2.92179 14.4245 2.85342 14.5897C2.78505 14.7549 2.74991 14.9319 2.75 15.1107V20.638C2.74991 20.8168 2.78505 20.9939 2.85342 21.1591C2.92179 21.3243 3.02205 21.4743 3.14846 21.6008C3.27487 21.7272 3.42495 21.8274 3.59013 21.8958C3.75531 21.9642 3.93234 21.9993 4.11111 21.9993H17.8872C18.0659 21.9993 18.243 21.9642 18.4081 21.8958C18.5733 21.8274 18.7234 21.7272 18.8498 21.6008C18.9762 21.4743 19.0765 21.3243 19.1449 21.1591C19.2132 20.9939 19.2484 20.8168 19.2483 20.638V15.1107C19.2484 14.9319 19.2132 14.7549 19.1449 14.5897C19.0765 14.4245 18.9762 14.2744 18.8498 14.148C18.7234 14.0216 18.5733 13.9213 18.4081 13.8529C18.243 13.7846 18.0659 13.7494 17.8872 13.7495V13.7495Z" fill="#C8D8E7"/>
</svg>
