<svg width="22" height="20" viewBox="0 0 22 20" fill="none" xmlns="http://www.w3.org/2000/svg">
<path fill-rule="evenodd" clip-rule="evenodd" d="M14.4466 6.76068e-07H7.55348C6.01056 -2.51304e-05 4.7669 -5.10293e-05 3.7888 0.150349C2.77329 0.306504 1.91825 0.640555 1.23916 1.41723C0.560075 2.1939 0.267994 3.17179 0.131459 4.33323C-4.46179e-05 5.45188 -2.1973e-05 6.87423 5.91126e-07 8.63885V11.3612C-2.1973e-05 13.1258 -4.46179e-05 14.5481 0.131459 15.6668C0.267994 16.8283 0.560075 17.8061 1.23916 18.5828C1.91825 19.3595 2.77329 19.6935 3.7888 19.8497C4.7669 20 6.01055 20 7.55346 20H14.4466C15.9895 20 17.2331 20 18.2113 19.8497C19.2268 19.6935 20.0817 19.3595 20.7609 18.5828C21.44 17.8061 21.7321 16.8283 21.8686 15.6668C22 14.5481 22 13.1258 22 11.3612V8.63888C22 6.87425 22 5.4519 21.8686 4.33323C21.7321 3.17179 21.44 2.1939 20.7609 1.41723C20.0817 0.640555 19.2268 0.306504 18.2113 0.150349C17.2331 -5.10293e-05 15.9895 -2.51304e-05 14.4466 6.76068e-07ZM4.60918 5.26346C4.1912 5.02444 3.68294 5.21821 3.47395 5.69625C3.26496 6.17428 3.43438 6.75559 3.85236 6.99461L9.61253 10.2885C10.486 10.788 11.514 10.788 12.3875 10.2885L18.1476 6.99461C18.5656 6.75559 18.7351 6.17428 18.526 5.69625C18.3171 5.21821 17.8088 5.02444 17.3908 5.26346L11.6307 8.55738C11.2337 8.78439 10.7664 8.78439 10.3693 8.55738L4.60918 5.26346Z" fill="#C8D8E7"/>
</svg>
