<svg width="20" height="22" viewBox="0 0 20 22" fill="none" xmlns="http://www.w3.org/2000/svg">
<path d="M19.5153 15.5797C18.7773 15.0755 18.2925 12.3328 18.304 10.0833V7.3333C18.304 3.289 14.5787 0 10.0003 0C5.42186 0 1.69658 3.289 1.69658 7.33335V10.087C1.70801 12.3319 1.22536 15.0746 0.486299 15.5797C0.105383 15.8382 -0.0742008 16.2708 0.0285575 16.6815C0.131316 17.0912 0.485277 17.4038 0.965838 17.4992C2.25708 17.7402 3.56696 17.919 4.88311 18.0547C5.23916 20.2785 7.38565 22 10.0003 22C12.6139 22 14.7614 20.2776 15.1164 18.0547C16.4377 17.9181 17.7508 17.7384 19.0482 17.4964C19.5143 17.4038 19.8682 17.0912 19.971 16.6815C20.0747 16.2708 19.8952 15.8382 19.5153 15.5797ZM5.84841 8.25C5.27444 8.25 4.81047 7.83935 4.81047 7.33335C4.81047 4.8061 7.13863 2.75 10.0003 2.75C10.5733 2.75 11.0382 3.15975 11.0382 3.66665C11.0382 4.17265 10.5733 4.5833 10.0003 4.5833C8.28245 4.5833 6.88641 5.81621 6.88641 7.3333C6.88641 7.83935 6.42137 8.25 5.84841 8.25ZM10.0003 20.1667C8.60114 20.1667 7.41475 19.3472 7.02342 18.2371C7.10749 18.2426 7.19157 18.2398 7.27564 18.2444C8.18178 18.2939 9.08793 18.3269 9.99616 18.3269C10.8971 18.3269 11.796 18.2948 12.6949 18.2463C12.7873 18.2417 12.8796 18.2435 12.972 18.238C12.5755 19.3545 11.3932 20.1667 10.0003 20.1667Z" fill="#C8D8E7"/>
</svg>
