<svg width="25" height="21" viewBox="0 0 25 21" fill="none" xmlns="http://www.w3.org/2000/svg">
<path d="M20.0307 0.763794H4.60212C2.20212 0.763794 0.316406 2.59713 0.316406 4.93046V16.5971C0.316406 18.9305 2.20212 20.7638 4.60212 20.7638H20.0307C22.4307 20.7638 24.3164 18.9305 24.3164 16.5971V4.93046C24.3164 2.59713 22.4307 0.763794 20.0307 0.763794ZM4.60212 6.59713C4.60212 6.09713 4.94498 5.76379 5.45926 5.76379H10.6021C11.1164 5.76379 11.4593 6.09713 11.4593 6.59713V11.5971C11.4593 12.0971 11.1164 12.4305 10.6021 12.4305H5.45926C4.94498 12.4305 4.60212 12.0971 4.60212 11.5971V6.59713ZM19.1735 15.7638H5.45926C4.94498 15.7638 4.60212 15.4305 4.60212 14.9305C4.60212 14.4305 4.94498 14.0971 5.45926 14.0971H19.1735C19.6878 14.0971 20.0307 14.4305 20.0307 14.9305C20.0307 15.4305 19.6878 15.7638 19.1735 15.7638ZM19.1735 12.4305H14.0307C13.5164 12.4305 13.1735 12.0971 13.1735 11.5971C13.1735 11.0971 13.5164 10.7638 14.0307 10.7638H19.1735C19.6878 10.7638 20.0307 11.0971 20.0307 11.5971C20.0307 12.0971 19.6878 12.4305 19.1735 12.4305Z" fill="#C8D8E7"/>
</svg>
