<svg width="21" height="25" viewBox="0 0 21 25" fill="none" xmlns="http://www.w3.org/2000/svg">
<path d="M18.2157 5.3937H14.8417V4.15465C14.8417 3.19293 14.0074 2.41333 12.9783 2.41333H5.36002V2.03143C5.36002 1.29297 4.71943 0.694336 3.92922 0.694336C3.13901 0.694336 2.49847 1.29297 2.49847 2.03143V21.637H1.71486C0.811458 21.637 0.0791016 22.3214 0.0791016 23.1657C0.0791016 24.0099 0.811458 24.6943 1.71486 24.6943H6.14363C7.04703 24.6943 7.77939 24.0099 7.77939 23.1657C7.77939 22.3214 7.04703 21.637 6.14363 21.637H5.36002V12.0342H11.5166V13.2732C11.5166 14.235 12.3509 15.0146 13.38 15.0146H18.2157C19.2449 15.0146 20.0791 14.235 20.0791 13.2732V7.13503C20.0791 6.17331 19.2449 5.3937 18.2157 5.3937Z" fill="#DA4167"/>
</svg>
