<svg xmlns="http://www.w3.org/2000/svg" width="800" height="800" fill="none" viewBox="0 0 24 24"><path fill="#000" fill-rule="evenodd" d="M1 12C1 5.925 5.925 1 12 1s11 4.925 11 11-4.925 11-11 11S1 18.075 1 12Zm8-1.5a1.5 1.5 0 1 0 0-3 1.5 1.5 0 0 0 0 3Zm6 0a1.5 1.5 0 1 0 0-3 1.5 1.5 0 0 0 0 3Zm-6.203 6.104A1 1 0 0 1 7.4 16.8a1.01 1.01 0 0 1-.198-1.403 4.6 4.6 0 0 1 .35-.402c.211-.22.521-.512.922-.804.798-.58 2-1.191 3.526-1.191 1.525 0 2.728.61 3.526 1.191.4.292.71.583.922.804.123.129.244.262.35.404h.002a1 1 0 0 1-1.597 1.205l-.005-.006a3.694 3.694 0 0 0-.194-.219 4.94 4.94 0 0 0-.655-.57c-.577-.42-1.375-.81-2.35-.81-.974 0-1.771.39-2.348.81a4.945 4.945 0 0 0-.816.748l-.034.041-.004.006Z" clip-rule="evenodd"/></svg>