<svg width="24" height="25" viewBox="0 0 24 25" fill="none" xmlns="http://www.w3.org/2000/svg">
<path fill-rule="evenodd" clip-rule="evenodd" d="M18.5301 9.09285C19.4373 8.18567 19.4373 6.71476 18.5301 5.80753C17.6229 4.9003 16.152 4.9003 15.2448 5.80753C14.3375 6.71476 14.3375 8.18567 15.2448 9.09285C16.152 10.0001 17.6229 10.0001 18.5301 9.09285ZM17.5626 6.77507C17.9355 7.14793 17.9355 7.75248 17.5626 8.12536C17.1897 8.49823 16.5852 8.49823 16.2123 8.12536C15.8394 7.75248 15.8394 7.14793 16.2123 6.77507C16.5852 6.40219 17.1897 6.40219 17.5626 6.77507Z" fill="#F5FEFF"/>
<path fill-rule="evenodd" clip-rule="evenodd" d="M1.35807 12.3173C0.69013 12.9852 0.690132 14.0682 1.35807 14.7361L9.60075 22.9787C10.2686 23.6467 11.3516 23.6467 12.0195 22.9787L22.6419 12.3564C22.9627 12.0357 23.1428 11.6007 23.1428 11.1471V2.9044C23.1428 1.95979 22.3771 1.19403 21.4325 1.19403H13.1898C12.7362 1.19403 12.3012 1.37423 11.9804 1.69499L1.35807 12.3173ZM11.4163 21.1633C11.0815 21.498 10.5388 21.498 10.204 21.1633L3.17358 14.1328C2.83885 13.7981 2.83885 13.2554 3.17358 12.9206L12.9387 3.15546C13.0995 2.99471 13.3175 2.9044 13.5449 2.9044H20.5753C21.0487 2.9044 21.4325 3.28816 21.4325 3.76154V10.792C21.4325 11.0194 21.3421 11.2373 21.1814 11.3981L11.4163 21.1633Z" fill="#C8D8E7"/>
</svg>
