<svg width="23" height="24" viewBox="0 0 23 24" fill="none" xmlns="http://www.w3.org/2000/svg">
<path d="M13.6624 6.66481e-07H8.49584C6.77659 -2.4774e-05 5.39081 -5.03056e-05 4.3009 0.148217C3.16934 0.302157 2.21658 0.631472 1.45989 1.39713C0.703199 2.16279 0.377724 3.12682 0.225598 4.27178C0.079065 5.37457 0.0790776 6.77672 0.0791028 8.51631V17.3535C0.0790651 18.9901 0.0790399 20.3264 0.221688 21.3142C0.365191 22.3076 0.698585 23.2926 1.6712 23.7708C2.64381 24.2492 3.61524 23.9059 4.47593 23.4063C5.33161 22.9097 6.37011 22.084 7.64187 21.0729L8.55486 20.3471C9.31872 19.7397 9.82686 19.3377 10.249 19.078C10.6493 18.8314 10.8812 18.7723 11.0791 18.7723C11.277 18.7723 11.5089 18.8314 11.9092 19.078C12.3313 19.3377 12.8395 19.7397 13.6033 20.3469L14.5164 21.0729C15.7881 22.0839 16.8266 22.9097 17.6822 23.4063C18.543 23.9059 19.5144 24.2492 20.4871 23.7708C21.4596 23.2926 21.793 22.3076 21.9365 21.3142C22.0792 20.3264 22.0791 18.9901 22.0791 17.3535V8.51637C22.0791 6.77676 22.0791 5.37458 21.9326 4.27178C21.7805 3.12682 21.4551 2.16279 20.6984 1.39713C19.9416 0.631472 18.9889 0.302157 17.8574 0.148217C16.7674 -5.03056e-05 15.3817 -2.4774e-05 13.6624 6.66481e-07Z" fill="#C8D8E7"/>
</svg>
