<svg width="24" height="25" viewBox="0 0 24 25" fill="none" xmlns="http://www.w3.org/2000/svg">
<path d="M22.4666 10.151H21.5602C21.3328 9.29383 20.9933 8.48244 20.5582 7.73334L21.1998 7.09171C21.7985 6.49297 21.7985 5.52225 21.1998 4.92352L19.771 3.49474C19.1723 2.896 18.2015 2.896 17.6028 3.49474L16.9612 4.13637C16.2121 3.70117 15.4007 3.36184 14.5436 3.13436V2.22757C14.5436 1.38078 13.8571 0.694336 13.0103 0.694336H10.9898C10.143 0.694336 9.45653 1.38078 9.45653 2.22757V3.13436C8.59949 3.36174 7.78801 3.70117 7.039 4.13627L6.39728 3.49464C5.79855 2.89591 4.82782 2.89591 4.22909 3.49474L2.8004 4.92352C2.20167 5.52225 2.20167 6.49297 2.8004 7.09171L3.44194 7.73325C3.00675 8.48235 2.66732 9.29383 2.43993 10.151H1.53314C0.686449 10.151 0 10.8374 0 11.6842V13.7047C0 14.5515 0.686449 15.2379 1.53314 15.2379H2.43993C2.66741 16.095 3.00684 16.9065 3.44203 17.6556L2.8004 18.2972C2.20167 18.896 2.20167 19.8667 2.8004 20.4654L4.22918 21.8942C4.82792 22.4929 5.79864 22.4929 6.39737 21.8942L7.03909 21.2525C7.7881 21.6877 8.59959 22.0271 9.45662 22.2545V23.1612C9.45662 24.008 10.1431 24.6944 10.9899 24.6944H13.0104C13.8572 24.6944 14.5437 24.008 14.5437 23.1612V22.2545C15.4008 22.027 16.2122 21.6876 16.9613 21.2524L17.603 21.8942C18.2017 22.4929 19.1724 22.4929 19.7712 21.8942L21.2 20.4654C21.4876 20.1779 21.6491 19.7879 21.6491 19.3813C21.6491 18.9746 21.4875 18.5847 21.2 18.2971L20.5582 17.6554C20.9934 16.9064 21.3328 16.0948 21.5602 15.2378H22.4667C23.3135 15.2378 23.9999 14.5514 23.9999 13.7046V11.6841C23.9998 10.8374 23.3134 10.151 22.4666 10.151ZM12 18.182C8.97405 18.182 6.51225 15.7202 6.51225 12.6943C6.51225 9.66838 8.97405 7.20659 12 7.20659C15.026 7.20659 17.4877 9.66838 17.4877 12.6943C17.4877 15.7202 15.026 18.182 12 18.182Z" fill="#C8D8E7"/>
<path d="M11.9999 9.95068C10.487 9.95068 9.2561 11.1815 9.2561 12.6945C9.2561 14.2073 10.487 15.4382 11.9999 15.4382C13.5128 15.4382 14.7437 14.2073 14.7437 12.6945C14.7437 11.1815 13.5128 9.95068 11.9999 9.95068Z" fill="#C8D8E7"/>
</svg>
