<svg width="20" height="21" viewBox="0 0 20 21" fill="none" xmlns="http://www.w3.org/2000/svg">
<path d="M6.66675 5.45736L10.0001 2.12402L13.3334 5.45736" stroke="#F5FEFF" stroke-width="2" stroke-linecap="round" stroke-linejoin="round"/>
<path d="M13.3334 8.79102H15.0001C15.2211 8.79102 15.4331 8.87881 15.5893 9.03509C15.7456 9.19137 15.8334 9.40334 15.8334 9.62435V17.1243C15.8334 17.3454 15.7456 17.5573 15.5893 17.7136C15.4331 17.8699 15.2211 17.9577 15.0001 17.9577H5.00008C4.77907 17.9577 4.56711 17.8699 4.41083 17.7136C4.25455 17.5573 4.16675 17.3454 4.16675 17.1243V9.62435C4.16675 9.40334 4.25455 9.19137 4.41083 9.03509C4.56711 8.87881 4.77907 8.79102 5.00008 8.79102H6.66675" stroke="#F5FEFF" stroke-width="2" stroke-linecap="round" stroke-linejoin="round"/>
<path d="M10 2.12402V12.9574" stroke="#F5FEFF" stroke-width="2" stroke-linecap="round" stroke-linejoin="round"/>
</svg>
