<svg width="25" height="25" viewBox="0 0 25 25" fill="none" xmlns="http://www.w3.org/2000/svg">
<path d="M19.5791 0.347168H4.5791C2.09326 0.347168 0.0791016 2.36132 0.0791016 4.84717V19.8472C0.0791016 22.333 2.09326 24.3472 4.5791 24.3472H19.5791C22.0649 24.3472 24.0791 22.333 24.0791 19.8472V4.84717C24.0791 2.36132 22.0649 0.347168 19.5791 0.347168ZM17.4145 16.4032L16.1333 17.6835C15.8988 17.9189 15.5148 17.9189 15.2803 17.6835L12.0791 14.4822L8.87879 17.6826C8.64341 17.9179 8.26033 17.9179 8.02495 17.6807L6.74372 16.4032C6.51018 16.1669 6.51018 15.7856 6.74372 15.5484L9.94495 12.3481L6.74464 9.14778C6.51018 8.91148 6.51018 8.52748 6.74464 8.29394L8.02587 7.01271C8.26126 6.77548 8.64526 6.77548 8.87972 7.01271L12.0791 10.2139L15.2803 7.01271C15.5157 6.77548 15.8997 6.77548 16.1333 7.01271L17.4145 8.29209C17.6489 8.52748 17.6489 8.91148 17.4154 9.14778L14.2142 12.3481L17.4154 15.5484C17.648 15.7856 17.648 16.1669 17.4145 16.4032Z" fill="#C8D8E7"/>
</svg>
